<?xml version="1.0" encoding="UTF-8"?><svg xmlns="http://www.w3.org/2000/svg" width="716.332" height="201.737" xmlns:xlink="http://www.w3.org/1999/xlink" viewBox="0 0 716.332 201.737"><g><path  fill="#ffffff" d="M74.264,143.413l-26.126-45.462h-6.378v44.022H0V.031H54.309C90.926,.031,111.909,16.282,111.909,46.727c0,19.132-8.639,32.709-24.685,40.937l31.475,48.961-44.434,6.788ZM49.784,30.681h-8.434v38.058h8.639c13.577,0,20.983-6.994,20.983-19.542,0-11.933-7.611-18.515-21.188-18.515Z"/><path  fill="#ffffff" d="M171.908,144.031c-32.298,0-54.515-16.458-54.515-52.251,0-33.532,20.778-53.692,49.166-53.692,32.091,0,45.875,23.452,45.875,53.486,0,3.909-.206,7.817-.618,9.875h-58.216c2.263,12.754,11.315,17.074,23.246,17.074,9.874,0,20.983-3.497,32.296-9.258l3.292,24.275c-11.108,6.376-24.892,10.492-40.525,10.492Zm-18.721-61.303h24.892c-.412-14.812-5.143-22.218-12.549-22.218s-12.138,7.406-12.343,22.218Z"/><path  fill="#ffffff" d="M440.945,141.973l-5.143-86.605-19.131,86.605h-40.938l-19.337-86.605-4.937,86.605h-36.206L325.332,.031h54.515l20.572,89.691L420.989,.031h53.074l10.08,141.942h-43.199Z"/><path  fill="#ffffff" d="M553.927,141.973l-2.058-12.343c-8.64,8.846-17.897,14.4-30.445,14.4-15.428,0-26.949-9.257-26.949-28.184,0-23.244,17.074-34.971,55.749-38.263v-.823c0-7.405-3.909-11.108-13.782-11.108-10.903,0-21.188,2.674-31.886,7.199l-4.114-26.742c11.315-4.527,25.097-7.612,42.171-7.612,29.417,0,44.229,9.052,44.229,36.412v67.063h-32.914Zm-3.497-48.961c-14.812,3.292-19.955,9.052-19.955,17.281,0,5.76,3.292,8.64,7.817,8.64,3.909,0,7.611-1.646,12.138-5.143v-20.778Z"/><path  fill="#ffffff" d="M656.837,141.973v-61.508c0-5.966-2.469-10.287-8.434-10.287-4.32,0-8.024,2.264-12.138,6.171v65.624h-36.617V40.144h32.914l2.263,13.577c9.051-9.257,17.897-15.635,30.034-15.635,18.721,0,28.594,11.726,28.594,32.091v71.795h-36.617Z"/><a xlink:href="lse"><path  fill="#ffffff" d="M271.011,76.144c-13.577-3.702-15.43-5.555-15.43-8.64,0-2.674,2.264-4.73,8.024-4.73,9.462,0,22.628,3.497,34.559,9.874l2.466-27.22c-10.651-4.505-23.935-7.134-37.437-7.134-26.126,0-40.527,13.371-40.527,33.326,0,19.542,11.315,26.537,37.441,33.326,12.754,3.291,14.605,5.348,14.605,8.639s-2.674,5.555-9.874,5.555c-10.492,0-26.331-4.32-39.497-12.138l-4.115,26.538c11.315,5.76,26.743,10.285,44.022,10.285,27.361,0,42.583-11.725,42.583-34.354,0-18.721-8.846-25.715-36.822-33.326Z"/></a><path  fill="#ffffff" d="M706.296,54.776c-5.947,0-10.008-4.177-10.008-10.355s4.119-10.414,10.036-10.414,10.008,4.177,10.008,10.355-4.119,10.414-10.036,10.414Zm.028-19.725c-4.989,0-8.76,3.336-8.76,9.34s3.829,9.34,8.76,9.34c4.96,0,8.731-3.336,8.731-9.34s-3.829-9.34-8.731-9.34Zm-.406,10.472h-1.188v4.38h-1.944v-11.429h3.336c2.466,0,4.09,1.305,4.09,3.51,0,1.625-.898,2.698-2.233,3.22l3.307,4.38-2.088,.464-3.278-4.525Zm-1.188-1.653h1.276c1.392,0,2.233-.638,2.233-1.828,0-1.131-.755-1.856-2.176-1.856h-1.334v3.684Z"/></g><g><g><path fill="#ffffff" d="M564.168,170.623c-.197-.197-.296-.437-.296-.719v-3.088c0-.31,.099-.564,.296-.761,.197-.197,.437-.296,.72-.296h3.892c.31,0,.563,.099,.761,.296,.197,.197,.296,.452,.296,.761v3.088c0,.282-.106,.522-.317,.719-.212,.198-.459,.297-.74,.297h-3.892c-.282,0-.522-.099-.72-.297Z"/><path fill="#ffffff" d="M672.217,170.623c-.197-.197-.296-.437-.296-.719v-3.088c0-.31,.099-.564,.296-.761,.197-.197,.437-.296,.72-.296h3.892c.31,0,.563,.099,.761,.296,.197,.197,.296,.452,.296,.761v3.088c0,.282-.106,.522-.317,.719-.212,.198-.459,.297-.74,.297h-3.892c-.282,0-.522-.099-.72-.297Z"/><path fill="#ffffff" d="M573.812,195.503c-.197-.197-.296-.437-.296-.719v-19.969c0-.31,.099-.557,.296-.74,.197-.183,.437-.275,.72-.275h3.511c.31,0,.557,.092,.74,.275,.183,.184,.275,.43,.275,.74v1.735c1.72-2.116,4.075-3.173,7.065-3.173,2.595,0,4.654,.846,6.176,2.539s2.285,4.019,2.285,6.98v11.888c0,.282-.092,.522-.275,.719-.184,.197-.43,.296-.74,.296h-3.807c-.282,0-.522-.099-.72-.296-.197-.197-.296-.437-.296-.719v-11.635c0-1.635-.402-2.912-1.206-3.828-.804-.916-1.953-1.375-3.448-1.375-1.439,0-2.595,.465-3.469,1.396-.874,.931-1.311,2.2-1.311,3.807v11.635c0,.282-.092,.522-.275,.719-.184,.197-.43,.296-.741,.296h-3.765c-.282,0-.523-.099-.72-.296Z"/><path fill="#ffffff" d="M598.698,195.503c-.198-.197-.296-.437-.296-.719v-28.006c0-.31,.098-.557,.296-.741,.197-.183,.437-.275,.719-.275h3.85c.31,0,.557,.092,.741,.275,.183,.184,.275,.43,.275,.741v9.646c1.692-2.031,3.962-3.046,6.811-3.046,2.595,0,4.667,.853,6.219,2.56,1.551,1.707,2.327,4.026,2.327,6.959v11.888c0,.282-.092,.522-.275,.719-.184,.197-.43,.296-.74,.296h-3.85c-.311,0-.565-.099-.762-.296-.197-.197-.296-.437-.296-.719v-11.635c0-1.635-.402-2.912-1.206-3.828-.804-.916-1.953-1.375-3.448-1.375-1.439,0-2.595,.465-3.469,1.396-.875,.931-1.312,2.2-1.312,3.807v11.635c0,.282-.092,.522-.275,.719-.184,.197-.43,.296-.741,.296h-3.85c-.282,0-.522-.099-.719-.296Z"/><path fill="#ffffff" d="M626.926,195.355c-1.199-.578-2.144-1.361-2.834-2.348-.691-.987-1.037-2.073-1.037-3.258,0-1.918,.776-3.469,2.327-4.654,1.551-1.185,3.681-1.988,6.388-2.412l5.796-.846v-.889c0-1.212-.31-2.129-.931-2.75-.621-.62-1.608-.931-2.961-.931-.931,0-1.678,.169-2.242,.508s-1.023,.684-1.375,1.036-.585,.586-.698,.698c-.113,.339-.325,.507-.635,.507h-3.3c-.254,0-.473-.084-.656-.254-.184-.169-.275-.395-.275-.677,.028-.705,.374-1.502,1.036-2.39,.663-.888,1.685-1.664,3.068-2.327,1.381-.663,3.088-.994,5.119-.994,3.328,0,5.754,.748,7.276,2.242,1.523,1.495,2.284,3.455,2.284,5.88v13.284c0,.282-.092,.522-.275,.719-.184,.197-.43,.296-.74,.296h-3.512c-.282,0-.522-.099-.719-.296-.197-.197-.296-.437-.296-.719v-1.65c-.621,.903-1.495,1.643-2.623,2.221-1.129,.578-2.539,.867-4.231,.867-1.439,0-2.757-.289-3.956-.867Zm9.202-4.717c.987-1.015,1.481-2.481,1.481-4.4v-.846l-4.231,.677c-3.244,.507-4.865,1.593-4.865,3.258,0,.903,.374,1.601,1.121,2.094,.747,.494,1.643,.74,2.687,.74,1.55,0,2.82-.507,3.807-1.523Z"/><path fill="#ffffff" d="M652.536,193.219v1.565c0,.282-.099,.522-.296,.719-.198,.197-.452,.296-.762,.296h-3.384c-.282,0-.522-.099-.719-.296-.198-.197-.296-.437-.296-.719v-28.006c0-.31,.098-.557,.296-.741,.197-.183,.437-.275,.719-.275h3.681c.31,0,.557,.092,.74,.275,.183,.184,.275,.43,.275,.741v9.392c1.579-1.861,3.737-2.792,6.473-2.792,2.848,0,5.041,.924,6.579,2.771,1.537,1.848,2.348,4.266,2.433,7.256,.028,.339,.041,.804,.041,1.396,0,.565-.014,1.03-.041,1.396-.114,3.046-.932,5.479-2.455,7.298-1.523,1.819-3.709,2.728-6.557,2.728-2.933,0-5.176-1.001-6.726-3.003Zm9.942-7.15c.028-.282,.042-.705,.042-1.269s-.015-.987-.042-1.269c-.198-3.723-1.805-5.584-4.823-5.584-1.552,0-2.736,.493-3.554,1.48-.819,.988-1.255,2.186-1.312,3.596-.028,.339-.042,.888-.042,1.65,0,.733,.014,1.269,.042,1.607,.056,1.495,.479,2.765,1.269,3.808,.789,1.044,1.988,1.565,3.596,1.565,3.018,0,4.625-1.861,4.823-5.584Z"/><path fill="#ffffff" d="M683.514,193.79c-1.298-1.339-1.946-3.306-1.946-5.902v-21.11c0-.31,.099-.557,.296-.741,.197-.183,.437-.275,.72-.275h3.512c.31,0,.557,.092,.74,.275,.182,.184,.274,.43,.274,.741v7.022h5.288c.282,0,.522,.099,.72,.297s.296,.437,.296,.719v2.496c0,.282-.099,.522-.296,.719-.197,.198-.437,.296-.72,.296h-5.288v9.096c0,1.213,.212,2.13,.635,2.75,.423,.621,1.114,.931,2.074,.931h2.961c.31,0,.557,.092,.74,.275,.184,.184,.275,.43,.275,.741v2.665c0,.282-.092,.522-.275,.719-.184,.197-.43,.296-.74,.296h-3.469c-2.566,0-4.499-.67-5.795-2.009Z"/><path fill="#ffffff" d="M564.37,195.503c-.197-.197-.296-.437-.296-.719v-19.969c0-.31,.099-.557,.296-.74,.197-.183,.437-.275,.72-.275h3.595c.282,0,.522,.099,.72,.297,.197,.197,.296,.437,.296,.719v19.969c0,.282-.099,.522-.296,.719-.198,.197-.438,.296-.72,.296h-3.595c-.282,0-.523-.099-.72-.296Z"/><path fill="#ffffff" d="M564.2,170.627c-.197-.197-.296-.437-.296-.719v-3.088c0-.31,.099-.564,.296-.761,.197-.197,.437-.296,.72-.296h3.892c.31,0,.563,.099,.761,.296,.197,.197,.296,.452,.296,.761v3.088c0,.282-.106,.522-.317,.719-.212,.198-.459,.297-.74,.297h-3.892c-.282,0-.522-.099-.72-.297Z"/><path fill="#ffffff" d="M672.422,195.503c-.197-.197-.296-.437-.296-.719v-19.969c0-.31,.099-.557,.296-.74,.197-.183,.437-.275,.72-.275h3.595c.282,0,.522,.099,.72,.297,.197,.197,.296,.437,.296,.719v19.969c0,.282-.099,.522-.296,.719-.198,.197-.438,.296-.72,.296h-3.595c-.282,0-.523-.099-.72-.296Z"/><path fill="#ffffff" d="M672.253,170.627c-.197-.197-.296-.437-.296-.719v-3.088c0-.31,.099-.564,.296-.761,.197-.197,.437-.296,.72-.296h3.892c.31,0,.563,.099,.761,.296,.197,.197,.296,.452,.296,.761v3.088c0,.282-.106,.522-.317,.719-.212,.198-.459,.297-.74,.297h-3.892c-.282,0-.522-.099-.72-.297Z"/><path fill="#ffffff" d="M544.515,157.483c-5.501,0-9.961,4.46-9.961,9.961v18.456c0,5.501,4.46,9.961,9.961,9.961s9.961-4.46,9.961-9.961v-18.456c0-5.501-4.46-9.961-9.961-9.961Zm0,17.304c-3.823,0-6.922-3.099-6.922-6.922s3.099-6.922,6.922-6.922,6.922,3.099,6.922,6.922-3.099,6.922-6.922,6.922Z"/></g><g><path fill="#ffffff" d="M509.963,186.824c0,2.547-.586,4.594-1.756,6.139-1.172,1.547-2.742,2.319-4.714,2.319-2.107,0-3.735-.745-4.884-2.234l-.139,1.926h-2.618v-23.665h2.85v8.829c1.15-1.428,2.737-2.143,4.761-2.143s3.613,.766,4.767,2.296c1.156,1.53,1.734,3.626,1.734,6.286v.247Zm-2.85-.324c0-1.941-.374-3.44-1.125-4.498-.75-1.058-1.826-1.588-3.235-1.588-1.879,0-3.23,.873-4.051,2.62v7.21c.871,1.746,2.233,2.619,4.082,2.619,1.366,0,2.43-.53,3.191-1.588,.758-1.057,1.139-2.65,1.139-4.776Z"/><path fill="#ffffff" d="M518.836,190.798l3.883-12.495h3.051l-6.702,19.243c-1.039,2.774-2.686,4.16-4.946,4.16l-.54-.046-1.064-.2v-2.311l.772,.061c.964,0,1.718-.195,2.258-.585,.537-.39,.982-1.104,1.331-2.141l.632-1.695-5.948-16.486h3.113l4.159,12.495Z"/></g></g></svg>